<svg xmlns="http://www.w3.org/2000/svg" viewBox="65 18 140 148" width="140" height="148">
  <path fill="#ffffff" d="M 125.01199,149.86998 C 113.39473,143.81538 104.5435,138.05574 98.684265,132.7381 88.134672,123.16365 82.422198,113.40367 79.655521,100.22677 78.834599,96.316952 78.779294,94.604471 78.631615,68.522039 l -0.156112,-27.571672 1.576164,-0.670151 c 5.899447,-2.508316 15.826556,-5.55934 21.494153,-6.606069 6.08467,-1.123756 15.2181,-2.196498 23.10648,-2.713908 11.22847,-0.736491 23.89751,0.122907 37.5701,2.548548 6.34486,1.125636 16.66622,4.126476 21.80186,6.338693 l 1.5499,0.667629 v 27.963745 c 0,23.776642 -0.0982,28.494597 -0.65609,31.509058 -3.19444,17.261808 -13.8384,30.957248 -33.58102,43.208278 -5.3673,3.3306 -18.22411,10.14417 -19.12173,10.13371 -0.31764,-0.004 -3.55914,-1.56067 -7.20333,-3.45992 z m 12.52176,-5.99947 c 10.52535,-5.29506 20.76194,-12.37792 27.01899,-18.69487 5.60519,-5.65886 10.4574,-13.55713 12.66099,-20.60915 1.92306,-6.154224 1.95419,-6.694216 1.95419,-33.891115 V 44.843732 l -2.27318,-0.77245 c -10.39821,-3.533418 -21.49479,-5.672593 -34.71766,-6.692794 -14.2339,-1.098207 -29.39628,0.09256 -42.983766,3.375702 -4.433697,1.071314 -12.582612,3.619456 -13.564433,4.24156 -0.856573,0.542744 -0.436295,49.436425 0.462827,53.84362 2.99337,14.6725 10.554288,25.54372 24.503112,35.231 5.55605,3.85861 20.2848,12.21269 21.56596,12.23212 0.28764,0.004 2.70548,-1.09003 5.37297,-2.43198 z m -20.58341,-17.51517 c -0.5766,-0.50429 -1.67713,-1.44251 -2.44561,-2.08494 l -1.39724,-1.16806 11.435,-11.4405 c 6.28926,-6.29228 11.43501,-11.63026 11.43501,-11.862177 0,-0.231919 -1.3038,-1.715485 -2.89734,-3.296813 l -2.89734,-2.875142 -11.73468,11.729292 -11.73469,11.72929 -1.33292,-1.51813 c -1.9635,-2.2363 -2.88077,-3.44628 -2.88077,-3.80004 0,-0.17278 5.02166,-5.38338 11.15925,-11.5791 6.13758,-6.195717 11.15924,-11.423648 11.15924,-11.61762 0,-0.193973 -1.29109,-1.633878 -2.86909,-3.199788 l -2.86909,-2.847111 -10.6527,10.453224 -10.6527,10.453225 -0.529294,-2.01539 C 96.954265,100.30709 96.669,98.377228 96.611455,97.126977 l -0.104627,-2.273185 11.407342,-11.287503 11.40733,-11.287504 5.33154,5.617266 5.33153,5.617266 13.01666,-13.031872 13.01667,-13.031872 h -9.92993 -9.92993 l -3.39671,-3.446012 c -1.8682,-1.895306 -3.39676,-3.5227 -3.39682,-3.61643 -6e-5,-0.09373 8.8029,-0.120404 19.56214,-0.05928 l 19.56226,0.111141 0.0342,19.624234 c 0.0188,10.793328 -0.0934,19.624234 -0.24924,19.624234 -0.1559,0 -1.81374,-1.538285 -3.68409,-3.41841 l -3.40065,-3.41841 V 72.527433 62.204223 l -13.11927,13.119297 -13.11927,13.119297 5.67826,5.689155 5.67825,5.689155 -13.74317,13.738603 c -7.55874,7.55623 -13.92813,13.73273 -14.15419,13.72554 -0.22607,-0.007 -0.88279,-0.42565 -1.4594,-0.92993 z"/>
</svg>